<?xml version="1.0" encoding="UTF-8" standalone="no"?>
<!-- Created with Inkscape (http://www.inkscape.org/) -->

<svg
   width="210mm"
   height="210mm"
   viewBox="0 0 210 210"
   version="1.1"
   id="svg1"
   xml:space="preserve"
   inkscape:export-filename="invoicee.png"
   inkscape:export-xdpi="84.666664"
   inkscape:export-ydpi="84.666664"
   inkscape:version="1.4.3 (0d15f75, 2025-12-25)"
   sodipodi:docname="invoicee.svg"
   xmlns:inkscape="http://www.inkscape.org/namespaces/inkscape"
   xmlns:sodipodi="http://sodipodi.sourceforge.net/DTD/sodipodi-0.dtd"
   xmlns="http://www.w3.org/2000/svg"
   xmlns:svg="http://www.w3.org/2000/svg"><sodipodi:namedview
     id="namedview1"
     pagecolor="#505050"
     bordercolor="#ffffff"
     borderopacity="1"
     inkscape:showpageshadow="0"
     inkscape:pageopacity="0"
     inkscape:pagecheckerboard="1"
     inkscape:deskcolor="#505050"
     inkscape:document-units="mm"
     inkscape:zoom="0.76167929"
     inkscape:cx="462.13676"
     inkscape:cy="447.03854"
     inkscape:window-width="1920"
     inkscape:window-height="1057"
     inkscape:window-x="-8"
     inkscape:window-y="-8"
     inkscape:window-maximized="1"
     inkscape:current-layer="layer1" /><defs
     id="defs1" /><g
     inkscape:label="Layer 1"
     inkscape:groupmode="layer"
     id="layer1"><g
       id="g2"
       transform="matrix(-1.1591928,0,0,-1.1591928,226.06067,275.46495)"><path
         style="display:inline;fill:#f9f9f9"
         d="M 44.994253,194.4279 C 15.263119,189.06124 5.9935119,150.51632 33.928531,148.41436 c 8.634107,-0.64967 13.839745,-2.87145 20.575635,-8.78173 5.687881,-4.99073 14.224053,-9.89172 24.881402,-14.2855 9.992988,-4.11988 17.270223,-9.94402 20.648002,-16.52507 5.33658,-10.397464 10.98111,-12.698749 14.56412,-5.93782 2.95508,5.57606 2.55393,10.65374 -1.30264,16.48869 -1.96465,2.97249 -3.61254,4.69465 -9.61187,10.04504 -7.657405,6.82911 -11.055678,18.30546 -6.179773,20.86979 1.444476,0.75968 19.077013,1.91314 19.470643,1.27371 0.60243,-0.97862 -1.47857,-6.25752 -3.24864,-8.24084 -5.13461,-5.75323 -3.91745,-12.36782 2.26828,-12.32678 4.40115,0.0292 7.27812,2.86562 12.04872,11.87893 2.3933,4.52178 2.72341,4.93026 3.00689,3.72082 1.742,-7.43207 2.34629,-12.67698 2.43021,-21.0929 0.11943,-11.97684 0.91907,-14.38223 5.16024,-15.5224 6.38611,-1.71681 8.91928,2.23071 9.11195,14.19948 0.12595,7.8235 0.3816,9.40203 1.08557,6.70278 0.9461,-3.6277 1.5077,-5.95183 2.4697,-10.22053 1.95597,-8.67929 4.3507,-11.57817 8.98988,-10.88248 5.51601,0.82718 6.84414,5.43308 4.83633,16.77224 -1.43351,8.09583 -1.36346,8.44138 0.87794,4.33077 4.53494,-8.3168 6.41642,-10.53175 10.86018,-12.78494 7.39828,-3.75127 14.73822,-0.78337 14.82368,5.99396 0.069,5.46937 -11.5357,21.14994 -26.10792,35.27778 -14.44685,14.00632 -22.40208,17.50864 -49.25852,21.6863 -11.09641,1.7261 -12.52964,2.03554 -18.785485,4.05585 -27.022484,8.72686 -41.552085,11.30336 -52.548802,9.31839 z"
         id="path3" /><path
         style="display:inline;fill:#000000"
         d="M 44.994253,194.4279 C 15.263119,189.06124 5.9935119,150.51632 33.928531,148.41436 c 8.634107,-0.64967 13.839745,-2.87145 20.575635,-8.78173 5.687881,-4.99073 14.224053,-9.89172 24.881402,-14.2855 9.992988,-4.11988 17.270223,-9.94402 20.648002,-16.52507 5.33658,-10.397464 10.98111,-12.698749 14.56412,-5.93782 2.95508,5.57606 2.55393,10.65374 -1.30264,16.48869 -1.96465,2.97249 -3.61254,4.69465 -9.61187,10.04504 -7.657405,6.82911 -11.055678,18.30546 -6.179773,20.86979 1.444476,0.75968 19.077013,1.91314 19.470643,1.27371 0.60243,-0.97862 -1.47857,-6.25752 -3.24864,-8.24084 -5.13461,-5.75323 -3.91745,-12.36782 2.26828,-12.32678 4.40115,0.0292 7.27812,2.86562 12.04872,11.87893 2.3933,4.52178 2.72341,4.93026 3.00689,3.72082 1.742,-7.43207 2.34629,-12.67698 2.43021,-21.0929 0.11943,-11.97684 0.91907,-14.38223 5.16024,-15.5224 6.38611,-1.71681 8.91928,2.23071 9.11195,14.19948 0.12595,7.8235 0.3816,9.40203 1.08557,6.70278 0.9461,-3.6277 1.5077,-5.95183 2.4697,-10.22053 1.95597,-8.67929 4.3507,-11.57817 8.98988,-10.88248 5.51601,0.82718 6.84414,5.43308 4.83633,16.77224 -1.43351,8.09583 -1.36346,8.44138 0.87794,4.33077 4.53494,-8.3168 6.41642,-10.53175 10.86018,-12.78494 7.39828,-3.75127 14.73822,-0.78337 14.82368,5.99396 0.069,5.46937 -11.5357,21.14994 -26.10792,35.27778 -14.44685,14.00632 -22.40208,17.50864 -49.25852,21.6863 -11.09641,1.7261 -12.52964,2.03554 -18.785485,4.05585 -27.022484,8.72686 -41.552085,11.30336 -52.548802,9.31839 z m 15.859913,-6.12023 c 7.491502,-1.15402 11.067184,-1.89604 13.611712,-2.82468 1.590868,-0.58059 4.894042,-1.46305 7.340388,-1.961 2.446345,-0.49796 5.7179,-1.28666 7.270122,-1.75268 4.846954,-1.45517 12.198142,-3.23104 15.875002,-3.835 1.94028,-0.31871 6.42791,-1.05527 9.97253,-1.6368 6.07668,-0.99693 9.28146,-1.75734 19.83719,-4.70685 2.42535,-0.67769 5.83847,-1.5804 7.58472,-2.00601 6.487,-1.58107 11.48009,-5.08556 22.57778,-15.84664 17.66217,-17.12645 24.35694,-28.62861 19.19246,-32.97423 -3.33667,-2.80762 -10.44909,1.32119 -14.72299,8.5468 -2.04359,3.45497 -3.08355,4.57452 -6.3161,6.79949 -1.50672,1.03706 -4.27238,3.1705 -6.14592,4.74097 -1.87354,1.57047 -4.88979,3.90785 -6.70277,5.19418 -1.81299,1.28632 -4.64572,3.48405 -6.29496,4.88383 -3.44614,2.9249 -4.99931,3.71631 -8.15196,4.15379 -2.37299,0.32929 -2.78241,0.29101 -10.83646,-1.0132 -4.33321,-0.70169 -5.36425,-0.76193 -7.23195,-0.42257 -26.732986,4.8574 -34.263631,-8.71829 -15.124,-27.26443 8.20525,-7.95082 11.24667,-13.99905 9.77448,-19.43776 -1.65742,-6.12301 -5.75924,-4.88059 -10.59764,3.20998 -5.189857,8.67827 -15.326916,17.1573 -25.06459,20.965 -5.603229,2.19102 -10.686321,4.96104 -14.823495,8.07803 -7.507284,5.65606 -9.069786,6.9386 -10.301679,8.45587 -4.664366,5.74491 -5.623096,6.19021 -13.476037,6.2592 -9.823989,0.0863 -13.98177,2.80583 -15.733729,10.29113 -2.913063,12.44616 8.68188,22.31977 28.433729,24.21259 2.690498,0.25783 8.050002,0.19972 10.054167,-0.10901 z m 77.357854,-41.48114 c 5.60921,-2.33673 7.72852,-11.19443 6.08925,-25.45007 -0.72075,-6.26783 -3.79566,-8.72331 -6.78881,-5.42123 -1.75797,1.93941 -2.64408,10.19158 -1.55208,14.45408 0.81344,3.17518 0.71272,4.52264 -0.65541,8.76805 -2.36348,7.33406 -1.53969,9.50163 2.90705,7.64917 z m -16.6904,-1.97796 c 2.96768,-2.33438 -2.81445,-11.01211 -6.28418,-9.43119 -3.2583,1.48458 -0.0872,9.12146 4.13077,9.94807 0.41394,0.0811 0.85028,0.16911 0.96963,0.19554 0.11936,0.0264 0.65206,-0.29417 1.18378,-0.71242 z m 34.77928,-11.62296 c 4.74383,-2.97584 7.48156,-12.93155 4.93092,-17.93122 -2.82056,-5.52874 -9.53738,5.28142 -9.53738,15.34961 0,4.43373 0.87355,4.9233 4.60646,2.58161 z"
         id="path2" /></g></g></svg>
